<?xml version="1.0" encoding="UTF-8" standalone="no"?>
<!-- Created with Inkscape (http://www.inkscape.org/) -->

<svg
   xmlns:dc="http://purl.org/dc/elements/1.1/"
   xmlns:cc="http://creativecommons.org/ns#"
   xmlns:rdf="http://www.w3.org/1999/02/22-rdf-syntax-ns#"
   xmlns:svg="http://www.w3.org/2000/svg"
   xmlns="http://www.w3.org/2000/svg"
   xmlns:sodipodi="http://sodipodi.sourceforge.net/DTD/sodipodi-0.dtd"
   xmlns:inkscape="http://www.inkscape.org/namespaces/inkscape"
   version="1.1"
   width="331.84375"
   height="330.5"
   id="svg2"
   sodipodi:docname="app_logo.svg"
   inkscape:version="0.92.3 (2405546, 2018-03-11)">
  <sodipodi:namedview
     pagecolor="#ffffff"
     bordercolor="#666666"
     borderopacity="1"
     objecttolerance="10"
     gridtolerance="10"
     guidetolerance="10"
     inkscape:pageopacity="0"
     inkscape:pageshadow="2"
     inkscape:window-width="2832"
     inkscape:window-height="1897"
     id="namedview3805"
     showgrid="false"
     inkscape:zoom="6.5666526"
     inkscape:cx="163.85801"
     inkscape:cy="165.4385"
     inkscape:window-x="293"
     inkscape:window-y="51"
     inkscape:window-maximized="0"
     inkscape:current-layer="svg2" />
  <defs
     id="defs4">
    <filter
       color-interpolation-filters="sRGB"
       id="filter3114">
      <feGaussianBlur
         stdDeviation="3"
         id="feGaussianBlur3116" />
      <feColorMatrix
         values="1 0 0 0 0 0 1 0 0 0 0 0 1 0 0 0 0 0 6 -2.5 "
         result="fbSourceGraphic"
         id="feColorMatrix3118" />
    </filter>
    <filter
       color-interpolation-filters="sRGB"
       id="filter4112-9">
      <feGaussianBlur
         id="feGaussianBlur4114-8"
         stdDeviation="1.1487023" />
    </filter>
    <filter
       x="-0.092804968"
       y="-0.11246847"
       width="1.1856099"
       height="1.2249368"
       color-interpolation-filters="sRGB"
       id="filter4142">
      <feGaussianBlur
         id="feGaussianBlur4144"
         stdDeviation="6.4347193" />
    </filter>
    <filter
       color-interpolation-filters="sRGB"
       id="filter4154">
      <feGaussianBlur
         id="feGaussianBlur4156"
         stdDeviation="2.8717558" />
    </filter>
    <clipPath
       id="p9a6a11f736">
      <rect
         x="316.04999"
         y="210.60001"
         width="982.79999"
         height="982.79999"
         id="rect5170" />
    </clipPath>
    <clipPath
       id="p9a6a11f736-3">
      <rect
         x="316.04999"
         y="210.60001"
         width="982.79999"
         height="982.79999"
         id="rect5230" />
    </clipPath>
    <clipPath
       id="p15c857fd2a">
      <rect
         x="134.22501"
         y="106.5"
         width="497"
         height="497"
         id="rect5352" />
    </clipPath>
    <clipPath
       id="pb8b2ae5b8e">
      <rect
         x="109.35"
         y="167.54286"
         width="546.75"
         height="374.91428"
         id="rect5482" />
    </clipPath>
    <clipPath
       id="pb8b2ae5b8e-2">
      <rect
         x="109.35"
         y="167.54286"
         width="546.75"
         height="374.91428"
         id="rect6413" />
    </clipPath>
    <clipPath
       id="pb8b2ae5b8e-9">
      <rect
         x="109.35"
         y="167.54286"
         width="546.75"
         height="374.91428"
         id="rect6535" />
    </clipPath>
    <clipPath
       id="pb8b2ae5b8e-1">
      <rect
         x="109.35"
         y="167.54286"
         width="546.75"
         height="374.91428"
         id="rect6595" />
    </clipPath>
    <clipPath
       id="p2154abc3f8">
      <rect
         x="109.35"
         y="167.54286"
         width="546.75"
         height="374.91428"
         id="rect6750" />
    </clipPath>
    <clipPath
       id="p01b40611de">
      <rect
         x="109.35"
         y="167.54286"
         width="546.75"
         height="374.91428"
         id="rect6891" />
    </clipPath>
  </defs>
  <metadata
     id="metadata7">
    <rdf:RDF>
      <cc:Work
         rdf:about="">
        <dc:format>image/svg+xml</dc:format>
        <dc:type
           rdf:resource="http://purl.org/dc/dcmitype/StillImage" />
        <dc:title />
      </cc:Work>
    </rdf:RDF>
  </metadata>
  <rect
     style="fill:#ff0000;fill-opacity:1;fill-rule:evenodd;stroke:none"
     id="rect2985"
     y="41.830353"
     x="40.6875"
     height="74.285713"
     width="74.285713" />
  <path
     inkscape:connector-curvature="0"
     style="fill:#4700ff;fill-opacity:1;fill-rule:evenodd;stroke:none"
     id="rect3799"
     d="m 127.11831,41.83035 v 74.28125 h 74.28125 V 41.83035 Z m 19.28125,20 h 35.71875 V 96.1116 h -35.71875 z" />
  <rect
     style="fill:#800080;fill-opacity:1;fill-rule:evenodd;stroke:none"
     id="rect3804"
     y="41.830353"
     x="213.54465"
     height="74.285713"
     width="74.285713" />
  <path
     inkscape:connector-curvature="0"
     style="fill:#ff0000;fill-opacity:1;fill-rule:evenodd;stroke:none"
     id="path3806"
     d="m 40.6875,127.90515 v 74.28125 h 74.28125 v -74.28125 z m 19.28125,20 H 95.6875 V 182.1864 H 59.96875 Z" />
  <rect
     style="fill:#ffb300;fill-opacity:1;fill-rule:evenodd;stroke:none"
     id="rect3808"
     y="127.90063"
     x="127.11385"
     height="74.285713"
     width="74.285713" />
  <path
     inkscape:connector-curvature="0"
     style="fill:#0e6600;fill-opacity:1;fill-rule:evenodd;stroke:none"
     id="path3810"
     d="m 213.54465,127.90402 v 74.28125 h 74.28125 v -74.28125 z m 19.28125,20 h 35.71875 v 34.28125 H 232.8259 Z" />
  <rect
     style="fill:#00af00;fill-opacity:1;fill-rule:evenodd;stroke:none"
     id="rect3812"
     y="213.97321"
     x="127.11496"
     height="74.285713"
     width="74.285713" />
  <rect
     style="fill:#4785ff;fill-opacity:1;fill-rule:evenodd;stroke:none"
     id="rect3814"
     y="213.97321"
     x="213.54465"
     height="74.285713"
     width="74.285713" />
  <path
     inkscape:connector-curvature="0"
     style="fill:#000000;fill-opacity:1;fill-rule:evenodd;stroke:none"
     id="path3816"
     d="m 40.6875,213.97767 v 74.28125 h 74.28125 v -74.28125 z m 19.28125,20 H 95.6875 v 34.28125 H 59.96875 Z" />
  <path
     inkscape:connector-curvature="0"
     style="opacity:0.46551729;fill:#00f5f5;fill-opacity:1;stroke-linecap:butt;stroke-linejoin:round;filter:url(#filter4142)"
     id="path4140"
     d="m 201.54952,175.44396 c -11.66971,0 -22.65186,4.94223 -31.15625,13.3125 -7.2761,7.1611 -13.79453,15.75731 -19.78125,25.625 0.005,-0.008 -0.0673,0.0824 -0.0937,0.125 -0.0325,0.0537 -0.0612,0.10244 -0.0937,0.15625 -0.11065,0.17716 -0.23138,0.36521 -0.21875,0.34375 a 8.1488012,8.1488012 0 0 0 -0.15625,0.28125 c 0.07,-0.13089 -2.15625,3.99521 -2.15625,7.9375 0,3.42255 0.95581,7.83879 4.65625,11.53125 3.69371,3.68574 8.1329,4.59375 11.46875,4.59375 h 2.96875 c 5.58162,0 9.17592,-2.25884 11.96875,-6 a 8.1488012,8.1488012 0 0 0 1.21865,-1.53125 c 2.64133,-4.31086 5.71705,-7.57226 9.53125,-10.28125 0.0365,-0.0259 0.0571,-0.0679 0.0937,-0.0937 v 0.0312 c 2.54752,-1.78118 4.73188,-2.49146 7.0625,-2.84375 -1.01389,3.04728 -1.9587,6.30631 -3.03125,9.15625 a 8.1488012,8.1488012 0 0 0 0,0.0625 8.1488012,8.1488012 0 0 0 -0.0937,0.21875 c -3.14642,8.41487 -6.70021,17.07987 -10.6875,26.03125 -4.02059,9.08484 -8.37714,18.38346 -13.03125,27.8125 a 8.1488012,8.1488012 0 0 0 -0.0625,0.0937 c 0.0343,-0.0724 -0.39372,1.01399 -0.46875,1.1875 -0.008,0.0189 -0.0654,0.13324 -0.0625,0.125 h 0.0312 c -0.79189,2.13128 -1.84375,5.1012 -1.84375,8.6875 0,6.06677 2.57065,11.55462 7.21875,15.46875 h 0.0312 c 4.01847,3.37712 9.02927,5.28125 14.34375,5.28125 9.76097,0 17.81565,-6.12424 22.0625,-14.0625 a 8.1488012,8.1488012 0 0 0 0.0625,-0.0937 c -0.007,0.0131 0.0461,-0.12364 0.0937,-0.21875 0.0224,-0.0448 0.0655,-0.1 0.0625,-0.0937 h -0.0312 c 1.49613,-2.98704 2.48332,-6.05284 3.875,-10.5 1.42887,-4.566 3.13713,-10.48042 5.1875,-17.875 3.41901,-12.33053 8.26976,-30.98767 13.5625,-51.65625 h 0.125 c -1.61446,6.96539 -3.3917,14.45807 -4.34375,19.4375 a 8.1488012,8.1488012 0 0 0 0,0.0312 c -1.81813,9.66219 -2.71875,19.64028 -2.71875,29.875 0,7.82577 0.9432,15.785 2.8125,23.84375 a 8.1488012,8.1488012 0 0 0 0.0312,0.0625 8.1488012,8.1488012 0 0 0 0.40625,1.28125 8.1488012,8.1488012 0 0 0 0.0937,0.1875 c 1.14312,4.2925 2.77877,8.6058 6,12.34375 4.00801,4.65095 9.71256,7.4375 16.0625,7.4375 4.4223,0 8.57185,-1.23939 12.15625,-3.28125 0.0117,-0.007 0.0195,-0.0245 0.0312,-0.0312 -0.0682,0.0401 -0.3862,0.25428 0.0625,0 3.28674,-1.86257 6.23138,-4.40793 8.53125,-7.625 a 8.1488012,8.1488012 0 0 0 0.0625,-0.125 8.1488012,8.1488012 0 0 0 0.53125,-0.875 8.1488012,8.1488012 0 0 0 0.0312,-0.0625 c -0.005,0.01 0.0985,-0.16594 0.0937,-0.15625 2.14196,-3.42361 3.5,-7.42482 3.5,-11.78125 0,-2.61555 -0.63302,-4.851 -1.40625,-6.875 a 8.1488012,8.1488012 0 0 0 -0.5625,-1.75 c -4.8584,-10.86595 -7.40033,-23.1238 -7.4375,-37.25 0.008,-0.38073 0.008,-0.40518 0,-0.0625 a 8.1488012,8.1488012 0 0 0 0,-0.0625 8.1488012,8.1488012 0 0 0 0,-0.0312 c -1e-5,-0.0107 10e-6,-0.0205 0,-0.0312 a 8.1488012,8.1488012 0 0 0 0,-0.0625 v -0.0625 c 0.18413,-7.84103 1.15501,-16.02568 2.5,-24.375 h 20.84375 c 6.15108,0 11.93053,-2.458 16.21875,-6.8125 4.21963,-4.28564 6.59375,-9.9677 6.59375,-16 0,-5.33851 -1.91941,-10.58627 -6.28125,-14.59375 -0.006,-0.006 -0.025,0.006 -0.0312,0 -0.007,-0.007 0.007,-0.0245 0,-0.0312 -0.007,-0.006 -0.0245,0.006 -0.0312,0 -0.008,-0.007 0.008,-0.024 0,-0.0312 -0.0683,-0.064 -0.0825,-0.0907 -0.15625,-0.15625 a 8.1488012,8.1488012 0 0 0 -1.3125,-0.9375 8.1488012,8.1488012 0 0 0 -0.0625,-0.0312 c -3.49798,-2.66984 -7.66291,-4.21875 -12.1875,-4.21875 h -92.6875 z" />
  <path
     inkscape:connector-curvature="0"
     style="opacity:0.46551729;fill:#00f5f5;fill-opacity:1;stroke-linecap:butt;stroke-linejoin:round;filter:url(#filter4154)"
     id="path3254"
     d="m 204.3272,183.60822 c -9.43243,0 -18.24018,3.88494 -25.4375,10.96875 -6.76093,6.65407 -12.96167,14.78071 -18.71875,24.3125 a 5.5675003,5.5675003 0 0 0 -0.15625,0.25 c -0.50291,0.93999 -1.1875,1.71429 -1.1875,4.09375 0,1.73815 0.53898,4.04267 2.25,5.75 1.71102,1.70733 3.98807,2.21875 5.71875,2.21875 h 2.96875 c 2.29527,0 4.97809,-1.70811 6.1875,-3.65625 l 0.0625,0.0312 c 3.19471,-5.21402 7.10712,-9.42136 11.875,-12.78125 0.008,-0.005 0.0237,0.005 0.0312,0 4.5931,-3.2114 9.18385,-4.6875 14.28125,-4.6875 h 8.84375 c -2.13427,7.16521 -4.37547,14.0869 -6.8125,20.5625 a 5.5675003,5.5675003 0 0 0 0,0.0312 c -3.23024,8.65403 -6.88572,17.55245 -10.96875,26.71875 -4.06795,9.19185 -8.45313,18.56542 -13.15625,28.09375 a 5.5675003,5.5675003 0 0 0 -0.21875,0.53125 c -0.77061,2.06748 -1.34375,3.69183 -1.34375,5.96875 0,3.44046 1.66828,7.02812 4.3125,9.25 2.51111,2.11516 5.82279,3.34375 9.125,3.34375 6.23582,0 11.82387,-4.0468 14.875,-9.75 a 5.5675003,5.5675003 0 0 0 0.0625,-0.125 c 1.09247,-2.16511 2.02033,-4.94626 3.40625,-9.375 1.38592,-4.42874 3.08932,-10.2834 5.125,-17.625 3.79562,-13.68877 9.01094,-33.633 15.125,-57.625 h 16.59375 c -2.66042,11.24914 -5.14947,21.898 -6.53125,29.125 -1.71834,9.13186 -2.5625,18.60985 -2.5625,28.375 0,7.17824 0.85569,14.50705 2.59375,22 a 5.5675003,5.5675003 0 0 0 0.0312,0.0312 c 0.96476,4.09328 2.34365,7.58264 4.75,10.375 2.40635,2.79236 6.1566,4.59375 9.875,4.59375 2.89354,0 5.71333,-0.82206 8.15625,-2.21875 0.0201,-0.0113 0.0425,-0.0199 0.0625,-0.0312 2.33151,-1.32125 4.38253,-3.10615 5.9375,-5.28125 a 5.5675003,5.5675003 0 0 0 0.0312,-0.0625 c 1.64681,-2.34258 2.65625,-5.22775 2.65625,-8.1875 0,-1.91722 -0.54487,-3.70452 -1.3125,-5.28125 l 0.0625,-0.0312 c -5.38502,-12.04375 -8.14094,-25.56147 -8.15625,-40.75 4.4e-4,-0.0204 -4.5e-4,-0.0421 0,-0.0625 -10e-6,-0.0213 0,-0.0411 0,-0.0625 0.23424,-10.54917 1.57993,-21.41156 3.6875,-32.53125 h 27.8125 c 3.8485,0 7.70436,-1.63135 10.40625,-4.375 2.67828,-2.72018 4.25,-6.51705 4.25,-10.28125 0,-3.09194 -1.28659,-6.45764 -3.65625,-8.625 -0.006,-0.006 -0.0248,0.006 -0.0312,0 -0.0273,-0.0249 -0.0349,-0.0692 -0.0625,-0.0937 l -0.0312,0.0312 c -2.17409,-1.96961 -5.18841,-3.15625 -8.125,-3.15625 h -92.6875 z" />
  <path
     inkscape:connector-curvature="0"
     style="fill:#fbfdfe;fill-opacity:1;stroke:#00c5ff;stroke-linecap:butt;stroke-linejoin:round;stroke-opacity:1"
     id="use3958"
     d="m 185.12948,290.94055 q 0,-1.3583 0.99809,-4.03607 7.10673,-14.39795 13.25547,-28.2915 6.18862,-13.8933 11.09934,-27.04942 4.9511,-13.15588 9.0633,-28.09731 h -16.32973 q -9.34284,0 -17.48751,5.70489 -8.10512,5.70491 -13.45525,14.43675 -0.47911,0.97015 -1.47725,0.97015 h -2.99447 q -2.39557,0 -2.39557,-2.406 0,-0.5047 0.51905,-1.47484 8.34457,-13.81581 17.88691,-23.20733 9.54228,-9.39178 21.52011,-9.39178 h 92.7086 q 2.635,0 4.47173,1.70758 1.87633,1.66883 1.87633,4.57952 0,3.64788 -2.67486,6.36459 -2.67511,2.71647 -6.42804,2.71647 h -32.53986 q -4.11246,19.55945 -4.51159,38.11001 0,23.86702 8.62405,43.15495 0.7584,1.47469 0.7584,3.02704 0,2.6778 -1.63691,5.0063 -1.63691,2.2897 -4.19218,3.72561 -2.55527,1.47472 -5.42995,1.47472 -6.70759,0 -9.223,-10.67233 -2.47554,-10.67231 -2.47554,-20.76238 0,-14.16528 2.47554,-27.32115 2.51541,-13.15612 7.98523,-35.74276 h -27.82845 q -20.20275,79.55738 -24.31494,87.70713 -3.63335,6.79149 -9.98166,6.79149 -3.11412,0 -5.50994,-2.01804 -2.35545,-1.97923 -2.35545,-5.00628" />
  <rect
     style="opacity:0.46551729;fill:none;stroke:none"
     id="rect4169"
     y="0.53302002"
     x="0.54413605"
     height="329.43747"
     width="330.75726" />
  <g
     id="line2d_1-6"
     style="stroke-linecap:butt;stroke-linejoin:round"
     transform="matrix(0.95012762,0,0,0.95012762,-540.62081,-281.77083)" />
  <rect
     style="opacity:0.653;fill:#fffffa;stroke:none;stroke-width:3.19270587;stroke-opacity:1;fill-opacity:1"
     id="rect6936"
     width="393.05597"
     height="208.16205"
     x="-189.10837"
     y="24.811625"
     transform="rotate(-45)" />
  <g
     transform="matrix(0.95288244,0,0,0.94944759,-324.31284,-221.01412)"
     style="stroke:#000000;stroke-linecap:butt;stroke-linejoin:round;stroke-opacity:0.28897339;fill:#000000"
     id="axes_1-9">
    <g
       style="stroke:#000000;stroke-linecap:butt;stroke-linejoin:round;stroke-opacity:0.28897339;fill:#000000"
       id="patch_2-3">
      <path
         inkscape:connector-curvature="0"
         id="path6885"
         style="fill:#000000;stroke:#000000;stroke-linecap:butt;stroke-linejoin:miter;stroke-opacity:0.2889734"
         clip-path="url(#p01b40611de)"
         d="M 402.25179,445.60429 H 382.725 m 39.05357,0 h -19.52678 m 39.05357,0 h 19.52678 m -19.52678,0 H 421.77857 M 382.725,387.02393 v -19.52679 m 0,39.05357 v -19.52678 m 0,39.05357 v 19.52679 m 0,-19.52679 v -19.52679 m 78.10714,19.52679 v 19.52679 m 0,-39.05358 v 19.52679 m 0,-39.05357 v -19.52679 m 0,19.52679 v 19.52678 m -19.52678,-39.05357 h 19.52678 m -39.05357,0 h 19.52679 m -39.05357,0 H 382.725 m 19.52679,0 h 19.52678 m -11.22036,57.10664 h -7.49828 m 14.99657,0 h -7.49829 m 14.99657,0 h -7.49828 m 14.99657,0 h 7.49829 m -7.49829,0 h -7.49829 m 14.96951,-9.46128 0.0271,9.46128 m -0.0271,-18.05307 v 8.59179 m 0,-17.18357 0.0271,-9.51563 m -0.0271,9.51563 v 8.59178 m -7.47122,-18.10741 h 7.49829 m -14.99658,0 h 7.49829 m -14.99657,0 h 7.49828 m -14.99657,0 h -7.49828 m 7.49828,0 h 7.49829 m -15.02364,9.51563 0.0271,-9.51563 m -0.0271,18.10741 v -8.59178 m 0,17.18357 0.0271,9.46128 m -0.0271,-9.46128 v -8.59179 m 10.79898,27.76485 -10.77191,-9.71178 m 10.77191,9.71178 -11.58005,11.28873 m 11.58005,-11.28873 7.94673,11.28873 m -7.94673,-11.28873 -3.27363,-9.71178 m 3.27363,9.71178 4.22466,-9.71178 m -4.22466,9.71178 11.72294,-9.71178 m 4.17052,-45.81791 10.82606,9.65743 m -10.82606,-9.65743 11.58006,-11.28873 m -11.58006,11.28873 -7.94673,-11.28873 m 7.94673,11.28873 3.32777,9.65743 m -3.32777,-9.65743 -4.17052,9.65743 m 4.17052,-9.65743 -11.6688,9.65743 m -6.72524,-8.35423 -8.27133,8.35423 m 8.27133,-8.35423 10.44731,-12.59193 m -10.44731,12.59193 -9.07947,-12.59193 m 9.07947,12.59193 6.72524,8.35423 m -6.72524,-8.35423 -0.77305,8.35423 m 0.77305,-8.35423 18.39404,-1.3032 m 2.50058,54.22649 8.32548,-8.40858 m -8.32548,8.40858 -10.44731,12.59193 m 10.44731,-12.59193 9.07948,12.59193 m -9.07948,-12.59193 -6.6711,-8.40858 m 6.6711,8.40858 0.82719,-8.40858 m -0.82719,8.40858 -18.39404,1.3032 m 36.84637,-32.06074 10.15393,4.29589 m -10.15393,-4.29589 10.15393,-15.23089 m -10.15393,15.23089 -10.15392,4.29589 m 10.15392,-4.29589 -10.15392,-4.29589 m -47.64536,12.88768 -10.15393,-4.2959 m 10.15393,4.2959 -10.15393,15.23089 m 10.15393,-15.23089 10.15393,-4.2959 m -10.15393,4.2959 10.15393,4.29589 m 44.65244,-35.0455 13.14684,-12.59986 m -13.14684,12.59986 -7.13394,8.3463 m 7.13394,-8.3463 13.14684,6.92693 M 447.6853,380.097 441.30536,367.49714 m 6.37994,12.59986 -17.96,-1.31113 m -33.45036,2.07037 -13.54994,-13.3591 m 13.54994,13.3591 6.78499,7.58706 m -6.78499,-7.58706 -13.54994,6.16769 m 13.54994,-6.16769 5.97685,-13.3591 m -5.97685,13.3591 15.05632,-0.76717 m 35.95094,52.15611 13.54994,13.35911 m -13.54994,-13.35911 -6.73084,-7.6414 m 6.73084,7.6414 -5.97684,13.35911 m 5.97684,-13.35911 13.54994,-6.16768 m -13.54994,6.16768 -15.05632,0.76718 m -36.35403,-0.008 -13.14685,12.59986 m 13.14685,-12.59986 7.18808,-8.40065 m -7.18808,8.40065 6.37994,12.59986 M 395.87185,433.00443 382.725,426.0775 m 13.14685,6.92693 17.95999,1.31113 m -18.32354,-12.5545 7.55163,2.84272 m -7.55163,-2.84272 -12.7833,4.31644 m 12.7833,-4.31644 7.52456,-6.61856 m -7.52456,6.61856 -2.62937,-10.91445 m 2.62937,10.91445 0.36355,11.24337 m 52.17699,-41.66407 -7.49748,-2.89706 m 7.49748,2.89706 12.7833,-4.31643 m -12.7833,4.31643 -7.52455,6.61857 m 7.52455,-6.61857 2.62937,10.91446 M 448.04884,391.34036 447.6853,380.097 m 0.42117,29.89043 12.72567,-3.43672 m -12.72567,3.43672 -7.58218,5.15507 m 7.58218,-5.15507 -7.58218,-3.43672 m 7.58218,3.43672 2.57174,-7.73261 m -0.99462,16.70145 -9.13223,5.64751 m 9.13223,-5.64751 11.14855,7.12123 m -11.14855,-7.12123 11.14855,-12.40556 m -11.14855,12.40556 -9.1593,-3.81377 m 9.1593,3.81377 -2.40139,13.28891 m 2.40139,-13.28891 -1.57712,-8.96884 m -52.6558,-6.87343 -12.72567,3.43671 m 12.72567,-3.43671 7.58219,-5.15507 m -7.58219,5.15507 7.58219,3.43671 m -7.58219,-3.43671 -2.57174,7.73261 m 0.99462,-16.70145 9.18638,-5.70186 m -9.18638,5.70186 -11.14855,-7.12123 m 11.14855,7.12123 -11.14855,12.40555 m 11.14855,-12.40555 9.15931,3.81377 m -9.15931,-3.81377 2.40139,-13.28892 m -2.40139,13.28892 1.57712,8.96884 M 492.85607,355 h -19.52678 m 39.05357,0 h -19.52679 m 39.05357,0 h 19.52679 m -19.52679,0 h -19.52678 m -39.05357,-58.58036 v -19.52678 m 0,39.05357 v -19.52679 m 0,39.05357 V 355 m 0,-19.52679 v -19.52678 m 78.10714,19.52678 V 355 m 0,-39.05357 v 19.52678 m 0,-39.05357 v -19.52678 m 0,19.52678 v 19.52679 m -19.52679,-39.05357 h 19.52679 m -39.05357,0 h 19.52678 m -39.05357,0 h -19.52678 m 19.52678,0 h 19.52679 m -11.20963,57.26151 h -7.49829 m 14.99657,0 h -7.49828 m 14.99657,0 h -7.49829 m 14.99658,0 h 7.49828 m -7.49828,0 h -7.49829 m 14.95877,-9.61616 0.0378,9.61616 m -0.0378,-18.20794 v 8.59178 m 0,-17.18357 v -9.54027 m 0,9.54027 v 8.59179 m -7.49828,-18.13206 h 7.49828 m -14.99657,0 h 7.49829 m -14.99658,0 h 7.49829 m -14.99657,0 h -7.49829 m 7.49829,0 h 7.49828 m -14.99657,9.54027 v -9.54027 m 0,18.13206 v -8.59179 m 0,17.18357 0.0378,9.61616 m -0.0378,-9.61616 v -8.59178 m 8.23434,-26.64991 -8.23434,8.51785 m 8.23434,-8.51785 10.51138,-12.40366 m -10.51138,12.40366 -9.01541,-12.40366 m 9.01541,12.40366 6.76223,8.51785 m -6.76223,-8.51785 -0.73605,8.51785 m 3.3007,45.8969 -10.76119,-9.5569 m 10.76119,9.5569 L 492.85607,355 M 504.43613,343.71127 512.38286,355 m -7.94673,-11.28873 -3.2629,-9.5569 m 3.2629,9.5569 4.23538,-9.5569 m -4.23538,9.5569 11.73367,-9.5569 m 6.66037,8.25371 8.3362,-8.25371 m -8.3362,8.25371 L 512.38286,355 M 522.83017,342.40808 531.90964,355 m -9.07947,-12.59192 -6.66037,-8.25371 m 6.66037,8.25371 0.83792,-8.25371 m -0.83792,8.25371 -18.39404,1.30319 m 16.05493,-54.0474 10.63751,8.1505 m -10.63751,-8.1505 11.41858,-12.77101 m -11.41858,12.77101 -8.1082,-12.77101 m 8.1082,12.77101 3.13923,8.1505 m -3.13923,-8.1505 -4.35906,8.1505 m 4.35906,-8.1505 -11.85735,8.1505 m 11.85735,-8.1505 -18.61958,-0.36735 m 39.41102,22.35402 10.15393,4.29589 m -10.15393,-4.29589 10.15393,-15.2309 m -10.15393,15.2309 -10.15393,4.29589 m 10.15393,-4.29589 -10.15393,-4.2959 m -47.64536,12.88768 -10.15392,-4.29589 m 10.15392,4.29589 -10.15392,15.23089 m 10.15392,-15.23089 10.15393,-4.29589 m -10.15393,4.29589 10.15393,4.29589 m 44.67167,-34.86904 13.12762,-12.77631 m -13.12762,12.77631 -7.18024,8.1452 m 7.18024,-8.1452 13.12762,6.75047 m -13.12762,-6.75047 -6.39917,-12.77631 m 6.39917,12.77631 -17.81775,-0.005 M 486.47613,342.40015 473.32929,355 m 13.14684,-12.59985 7.19881,-8.24578 m -7.19881,8.24578 L 492.85607,355 m -6.37994,-12.59985 -13.14684,-6.92694 m 13.14684,6.92694 17.96,1.31112 M 537.88649,341.6409 551.43643,355 m -13.54994,-13.3591 -6.72012,-7.48653 m 6.72012,7.48653 L 531.90964,355 m 5.97685,-13.3591 13.54994,-6.16769 m -13.54994,6.16769 -15.05632,0.76718 m -35.96162,-52.1875 -13.53926,-13.32772 m 13.53926,13.32772 6.76859,7.59379 m -6.76859,-7.59379 -13.53926,6.19906 m 13.53926,-6.19906 5.98752,-13.32772 m -5.98752,13.32772 15.00293,-0.92406 m -15.7589,41.86026 7.56236,2.99759 m -7.56236,-2.99759 -12.78329,4.31643 m 12.78329,-4.31643 7.52456,-6.61857 m -7.52456,6.61857 -2.62937,-10.91446 m 2.62937,10.91446 0.36355,11.24337 m 52.18085,-41.62878 -7.52841,-2.957 m 7.52841,2.957 12.77945,-4.35173 m -12.77945,4.35173 -7.52841,6.58327 m 7.52841,-6.58327 2.62552,10.87917 m -2.62552,-10.87917 -0.34817,-11.1022 m -52.25385,22.84054 -12.72567,3.43672 m 12.72567,-3.43672 7.58218,-5.15507 m -7.58218,5.15507 7.58218,3.43672 m -7.58218,-3.43672 -2.57175,7.73261 m 0.99285,-16.70668 9.16108,-5.72127 m -9.16108,5.72127 -11.14677,-7.116 m 11.14677,7.116 -11.14677,12.41079 m 11.14677,-12.41079 9.16108,3.819 m -9.16108,-3.819 2.39249,-13.31506 m -2.39249,13.31506 1.5789,8.97407 m 52.65579,6.87343 12.72568,-3.43671 m -12.72568,3.43671 -7.58218,5.15507 m 7.58218,-5.15507 -7.58218,-3.43671 m 7.58218,3.43671 2.57175,-7.7326 m -0.99463,16.70144 -9.1215,5.80239 m 9.1215,-5.80239 11.14856,7.12123 m -11.14856,-7.12123 11.14856,-12.40555 m -11.14856,12.40555 -9.1593,-3.81377 m 9.1593,3.81377 -2.40138,13.28892 m 2.40138,-13.28892 -1.57712,-8.96884 M 402.25179,355 H 382.725 m 39.05357,0 h -19.52678 m 39.05357,0 h 19.52678 m -19.52678,0 h -19.52679 m 39.05357,-19.52679 V 355 m 0,-39.05357 v 19.52678 m 0,-39.05357 v -19.52678 m 0,19.52678 v 19.52679 m -19.52678,-39.05357 h 19.52678 m -39.05357,0 h 19.52679 m -39.05357,0 H 382.725 m 19.52679,0 h 19.52678 M 382.725,296.41964 v -19.52678 m 0,39.05357 v -19.52679 m 0,39.05357 V 355 m 0,-19.52679 v -19.52678 m 55.32589,-16.27232 22.78125,16.27232 m -22.78125,-16.27232 22.78125,-3.25447 m -22.78125,3.25447 3.25447,-22.78125 m -3.25447,22.78125 -16.27232,-22.78125 m 16.27232,22.78125 -16.27232,16.27232 m -16.27232,-16.27232 16.27232,-22.78125 m -16.27232,22.78125 -3.25446,-22.78125 m 3.25446,22.78125 -22.78125,-3.25447 m 22.78125,3.25447 -22.78125,16.27232 m 22.78125,-16.27232 16.27232,16.27232 m -16.27232,-16.27232 h 32.54464 M 405.50625,332.21875 402.25179,355 M 405.50625,332.21875 421.77857,355 M 405.50625,332.21875 382.725,315.94643 m 22.78125,16.27232 -22.78125,3.25446 m 22.78125,-3.25446 16.27232,-16.27232 m -16.27232,16.27232 V 299.67411 M 438.05089,332.21875 421.77857,355 M 438.05089,332.21875 441.30536,355 m -3.25447,-22.78125 22.78125,3.25446 m -22.78125,-3.25446 22.78125,-16.27232 m -22.78125,16.27232 -16.27232,-16.27232 m 16.27232,16.27232 v -32.54464 m 0,32.54464 H 405.50625 M 392.48839,345.23661 382.725,355 m 9.76339,-9.76339 9.7634,9.76339 m -9.7634,-9.76339 -9.76339,-9.7634 m 9.76339,9.7634 13.01786,-13.01786 M 450.77224,344.9401 460.83214,355 M 450.77224,344.9401 441.30536,355 m 9.46688,-10.0599 10.0599,-9.46689 m -10.0599,9.46689 -12.72135,-12.72135 m 12.80607,-45.35071 9.97518,-9.97518 m -9.97518,9.97518 9.97518,9.5516 m -9.97518,-9.5516 -9.5516,-9.97518 m 9.5516,9.97518 -12.80607,12.80607 m -45.35071,-12.80607 -9.97518,-9.97518 m 9.97518,9.97518 9.55161,-9.97518 m -9.55161,9.97518 -9.97518,9.5516 m 9.97518,-9.5516 12.80607,12.80607 m 67.82304,87.34982 v -19.52679 m 0,39.05357 v -19.52678 m 0,39.05357 v 19.52679 m 0,-19.52679 v -19.52679 m 58.58035,-39.05357 h 19.52679 m -39.05357,0 h 19.52678 m -39.05357,0 h -19.52678 m 19.52678,0 h 19.52679 m -26.03572,65.08929 -13.01785,13.01786 m 13.01785,-13.01786 -13.01785,-6.50893 m 26.03571,-6.50893 -13.01786,13.01786 m 26.03572,-26.03572 -13.01786,13.01786 m 26.03571,-26.03571 -13.01785,13.01785 m 26.03571,-26.03571 13.01786,-13.01786 m -13.01786,13.01786 -6.50893,-13.01786 m 6.50893,13.01786 -13.01786,13.01786 m -27.22901,-1.19331 -24.84241,-5.31562 m 24.84241,5.31562 -24.84241,14.21116 m 24.84241,-14.21116 14.21116,-24.84241 m -14.21116,24.84241 -5.31563,-24.84241 m 5.31563,24.84241 1.1933,27.22902 m -1.1933,-27.22902 14.21116,14.21116 m -14.21116,-14.21116 27.22901,1.19331 m -39.29223,21.89169 -12.77919,-8.87384 m 12.77919,8.87384 -12.77919,10.65295 m 12.77919,-10.65295 0.23866,17.16188 m -0.23866,-17.16188 13.25652,4.14402 m -13.25652,-4.14402 12.06322,-23.085 m 23.085,-12.06321 10.65294,-12.7792 m -10.65294,12.7792 -8.87384,-12.7792 m 8.87384,12.7792 4.14401,13.25652 m -4.14401,-13.25652 17.16187,0.23866 m -17.16187,-0.23866 -23.085,12.06321 m -13.75012,-13.75011 -11.09229,-11.0923 m 11.09229,11.0923 -11.09229,8.43449 m 11.09229,-8.43449 8.43449,-11.0923 m -8.43449,11.0923 13.75012,13.75011 m 65.76187,-95.91991 v -19.52678 m 0,39.05357 v -19.52679 m 0,39.05357 V 355 m 0,-19.52679 v -19.52678 m 58.58036,-39.05357 h 19.52678 m -39.05357,0 h 19.52679 m -39.05357,0 h -19.52679 m 19.52679,0 h 19.52678 M 576.95143,341.98214 563.93357,355 m 13.01786,-13.01786 -13.01786,-6.50893 m 26.03572,-6.50892 -13.01786,13.01785 m 26.03571,-26.03571 -13.01785,13.01786 m 26.03571,-26.03572 -13.01786,13.01786 m 26.03572,-26.03572 13.01785,-13.01785 m -13.01785,13.01785 -6.50893,-13.01785 m 6.50893,13.01785 -13.01786,13.01786 m -27.22902,-1.1933 -24.84241,-5.31563 m 24.84241,5.31563 -24.84241,14.21116 m 24.84241,-14.21116 14.21116,-24.84241 m -14.21116,24.84241 -5.31562,-24.84241 m 5.31562,24.84241 1.19331,27.22902 m -1.19331,-27.22902 14.21116,14.21116 m -14.21116,-14.21116 27.22902,1.1933 m -39.29223,21.8917 -12.7792,-8.87384 m 12.7792,8.87384 -12.7792,10.65294 m 12.7792,-10.65294 0.23866,17.16187 m -0.23866,-17.16187 13.25652,4.14402 m -13.25652,-4.14402 12.06321,-23.085 m 23.085,-12.06322 10.65295,-12.77919 m -10.65295,12.77919 -8.87384,-12.77919 m 8.87384,12.77919 4.14402,13.25652 m -4.14402,-13.25652 17.16188,0.23866 m -17.16188,-0.23866 -23.085,12.06322 m -13.75011,-13.75011 -11.0923,-11.0923 m 11.0923,11.0923 -11.0923,8.43448 m 11.0923,-8.43448 8.43449,-11.0923 m -8.43449,11.0923 13.75011,13.75011 m -185.65302,214.23501 -0.09,-1.63171 M 382.725,476.56469 v -18.46326 m 0,34.30055 v -15.83729 m 0,29.42209 v -13.5848 m 0,25.23748 v -11.65268 m 0,21.64804 0.10985,8.88245 m -0.10985,-8.88245 v -9.99536 m 69.53339,-59.53803 h 8.57375 m -18.5691,0 h 9.99535 m -21.64803,0 h 11.65268 m -25.23749,0 h 13.58481 m -29.4221,0 H 382.725 m 18.46326,0 h 15.83729 m 27.40409,16.4025 -4.33195,4.36713 m 9.79945,-9.83463 -5.4675,5.4675 m 10.935,-10.935 5.4675,-5.4675 m -5.4675,5.4675 -3.10625,-5.4675 m 3.10625,5.4675 -5.4675,5.4675 m -17.70052,9.95253 7.90107,-0.1179 m -14.93227,0.1179 h 7.0312 m -14.2138,0 h 7.1826 m -14.51985,0 h -7.49524 m 7.49524,0 h 7.33725 m -14.94996,8.23483 0.11747,-8.23483 m -0.11747,15.29256 v -7.05773 m 0,13.92608 v -6.86835 m 0,13.55238 v 6.50467 m 0,-6.50467 v -6.68403 m -14.6699,29.83929 -5.52811,5.52811 m 5.52811,-5.52811 -5.63796,-3.35434 m 11.12547,-2.13317 -5.48751,5.48751 m 10.9347,-10.9347 3.8253,-4.08418 m -3.8253,4.08418 3.8253,-4.08418 m -3.8253,4.08418 -5.44719,5.44719 m -0.2707,-10.49559 9.54319,0.96422 m -9.54319,-0.96422 -10.85477,-9.01928 m 10.85477,9.01928 -10.85477,2.6334 m 10.85477,-2.6334 9.45309,-7.17216 m -9.45309,7.17216 0.2707,10.49559 m -0.2707,-10.49559 5.71789,5.0484 m 36.85322,-47.90286 3.94681,6.71946 m -3.94681,-6.71946 -5.54052,-14.05017 m 5.54052,14.05017 8.27876,2.35233 m -8.27876,-2.35233 -3.95426,6.83736 m -10.73997,-10.10656 9.15371,-10.78097 m -9.15371,10.78097 -4.4311,-10.78097 m 4.4311,10.78097 3.70877,10.10656 m -3.70877,-10.10656 -3.47383,10.10656 m -25.50871,18.72674 -9.74911,-5.31372 m 9.74911,5.31372 -9.74911,8.27108 m 9.74911,-8.27108 10.55875,-3.43418 m -10.55875,3.43418 10.55875,3.43417 m 3.74762,-32.50732 -3.63015,10.34641 m 3.63015,-10.34641 10.24507,-10.54112 m -10.24507,10.54112 -5.59222,-10.54112 m 5.59222,10.54112 3.86509,10.34641 m -18.6607,4.60865 11.16546,-4.60865 m -11.16546,4.60865 -9.25987,-7.03292 m 9.25987,7.03292 -9.25987,8.80437 m 9.25987,-8.80437 11.04799,3.62618 m -14.82816,36.00696 -5.4797,-5.59129 m 5.4797,5.59129 -5.4797,4.40407 m 5.4797,-4.40407 0.15825,7.75841 m -0.15825,-7.75841 5.64577,2.2709 m -5.64577,-2.2709 5.37507,-8.22469 m 1.15964,-44.1762 -12.01441,-12.72843 m 12.01441,12.72843 8.41092,8.1591 m -8.41092,-8.1591 -12.01441,5.73483 m 12.01441,-5.73483 6.44885,-12.72843 m -6.44885,12.72843 12.04107,-2.18731 m -12.04107,2.18731 -2.75454,12.76775 m 56.42386,-20.46252 3.84966,-5.03366 m -3.84966,5.03366 -6.14569,-5.03366 m 6.14569,5.03366 1.48841,5.90134 m -1.48841,-5.90134 6.95591,0.43384 m -13.40468,2.26939 0.30308,-7.73689 m -0.30308,7.73689 -11.3496,-7.73689 m 11.3496,7.73689 2.46968,8.66561 m -2.46968,-8.66561 7.93718,3.19811 m -7.93718,-3.19811 -5.80908,6.31328 m 5.80908,-6.31328 6.44877,-2.70323 m -19.84518,10.35907 2.04681,-15.39273 m -2.04681,15.39273 3.63307,5.4948 m -3.63307,-5.4948 -3.39813,5.4948 m 3.39813,-5.4948 7.58733,-1.34256 m -7.58733,1.34256 -7.1069,-4.61176 m -26.48773,36.65606 -12.24392,0.44832 m 12.24392,-0.44832 8.06394,-4.38859 m -8.06394,4.38859 8.06394,2.29544 m -8.06394,-2.29544 -1.38915,9.4676 m 1.38915,-9.4676 -2.49481,-7.82276 m 21.72262,-25.05845 2.82882,-14.55582 m -2.82882,14.55582 3.78609,6.33171 m -3.78609,-6.33171 -3.55116,6.33171 m 3.55116,-6.33171 7.25992,-3.77485 m -7.25992,3.77485 -7.41625,-4.0147 m -10.73321,22.11011 -13.32227,1.64932 m 13.32227,-1.64932 6.98559,-3.52887 m -6.98559,3.52887 6.98559,3.52886 m -6.98559,-3.52886 -3.57316,6.96304 m 3.57316,-6.96304 -4.0624,-7.15505"
         sodipodi:nodetypes="cccccccccccccccccccccccccccccccccccccccccccccccccccccccccccccccccccccccccccccccccccccccccccccccccccccccccccccccccccccccccccccccccccccccccccccccccccccccccccccccccccccccccccccccccccccccccccccccccccccccccccccccccccccccccccccccccccccccccccccccccccccccccccccccccccccccccccccccccccccccccccccccccccccccccccccccccccccccccccccccccccccccccccccccccccccccccccccccccccccccccccccccccccccccccccccccccccccccccccccccccccccccccccccccccccccccccccccccccccccccccccccccccccccccccccccccccccccccccccccccccccccccccccccccccccccccccccccccccccccccccccccccccccccccccccccccccccccccccccccccccccccccccccccccccccccccccccccccccccccccccccccccccccccccccccccccccccccccccccccccccccccccccccccccccccccccccccccccccccccccccccccccccccccccccccccccccccccccccccccccccccccccccccccccccccccccccccccccccccccccccccccccccccccccccccccccccccccccccccccccccccccccccccccccccccccccccccccccccccccccccccccccccccccccccccccccccccccccccccccccccccccccccccccccccccccccccccccccccccccccccccccc" />
    </g>
    <g
       style="stroke:#000000;stroke-linecap:butt;stroke-linejoin:round;stroke-opacity:0.28897339;fill:#000000"
       id="line2d_1-60" />
  </g>
</svg>
